<svg width="804" height="222" viewBox="0 0 804 222" fill="none" xmlns="http://www.w3.org/2000/svg">
<path d="M298.984 164.75C291.751 164.75 285.509 163.933 280.259 162.3C275.126 160.55 270.926 158.45 267.659 156C264.509 153.55 262.118 151.1 260.484 148.65C258.968 146.083 258.151 143.925 258.034 142.175C257.918 140.892 258.326 139.842 259.259 139.025C260.193 138.208 261.126 137.8 262.059 137.8H279.034C279.384 137.8 279.734 137.858 280.084 137.975C280.434 138.092 280.784 138.383 281.134 138.85C282.651 139.9 284.226 141.125 285.859 142.525C287.493 143.808 289.359 144.917 291.459 145.85C293.676 146.783 296.418 147.25 299.684 147.25C303.534 147.25 306.801 146.492 309.484 144.975C312.168 143.342 313.509 141.067 313.509 138.15C313.509 136.05 312.868 134.3 311.584 132.9C310.418 131.5 308.143 130.217 304.759 129.05C301.376 127.883 296.359 126.6 289.709 125.2C283.409 123.8 278.043 121.933 273.609 119.6C269.176 117.267 265.851 114.35 263.634 110.85C261.418 107.233 260.309 102.917 260.309 97.9C260.309 93.35 261.709 88.975 264.509 84.775C267.426 80.575 271.684 77.1333 277.284 74.45C282.884 71.65 289.884 70.25 298.284 70.25C304.701 70.25 310.301 71.0667 315.084 72.7C319.984 74.2167 324.068 76.2 327.334 78.65C330.601 80.9833 333.051 83.4333 334.684 86C336.434 88.45 337.368 90.6083 337.484 92.475C337.601 93.6417 337.251 94.6333 336.434 95.45C335.618 96.2667 334.684 96.675 333.634 96.675H318.059C317.476 96.675 316.951 96.6167 316.484 96.5C316.018 96.2667 315.609 95.975 315.259 95.625C313.859 94.6917 312.401 93.6417 310.884 92.475C309.484 91.1917 307.793 90.0833 305.809 89.15C303.826 88.2167 301.259 87.75 298.109 87.75C294.259 87.75 291.284 88.625 289.184 90.375C287.201 92.0083 286.209 94.1083 286.209 96.675C286.209 98.3083 286.734 99.825 287.784 101.225C288.834 102.625 290.993 103.908 294.259 105.075C297.526 106.242 302.484 107.467 309.134 108.75C317.068 110.15 323.368 112.25 328.034 115.05C332.701 117.85 336.026 121.117 338.009 124.85C340.109 128.467 341.159 132.375 341.159 136.575C341.159 142.058 339.526 146.958 336.259 151.275C332.993 155.475 328.209 158.8 321.909 161.25C315.726 163.583 308.084 164.75 298.984 164.75ZM401.366 163C394.133 163 387.95 161.833 382.816 159.5C377.683 157.05 373.775 153.317 371.091 148.3C368.525 143.283 367.241 136.983 367.241 129.4V92.65H353.591C352.308 92.65 351.258 92.2417 350.441 91.425C349.625 90.6083 349.216 89.5583 349.216 88.275V76.375C349.216 75.0917 349.625 74.0417 350.441 73.225C351.258 72.4083 352.308 72 353.591 72H367.241V43.125C367.241 41.8417 367.65 40.7917 368.466 39.975C369.4 39.1583 370.45 38.75 371.616 38.75H388.766C390.05 38.75 391.1 39.1583 391.916 39.975C392.733 40.7917 393.141 41.8417 393.141 43.125V72H415.016C416.183 72 417.175 72.4083 417.991 73.225C418.808 74.0417 419.216 75.0917 419.216 76.375V88.275C419.216 89.5583 418.808 90.6083 417.991 91.425C417.175 92.2417 416.183 92.65 415.016 92.65H393.141V127.3C393.141 131.733 393.9 135.233 395.416 137.8C397.05 140.25 399.85 141.475 403.816 141.475H416.591C417.758 141.475 418.75 141.883 419.566 142.7C420.383 143.517 420.791 144.508 420.791 145.675V158.625C420.791 159.908 420.383 160.958 419.566 161.775C418.75 162.592 417.758 163 416.591 163H401.366ZM440.259 163C439.092 163 438.1 162.592 437.284 161.775C436.467 160.958 436.059 159.908 436.059 158.625V76.375C436.059 75.2083 436.467 74.2167 437.284 73.4C438.1 72.4667 439.092 72 440.259 72H457.409C458.575 72 459.567 72.4667 460.384 73.4C461.317 74.2167 461.784 75.2083 461.784 76.375V83.375C464.7 79.7583 468.259 76.9583 472.459 74.975C476.775 72.9917 481.734 72 487.334 72H494.859C496.025 72 497.017 72.4083 497.834 73.225C498.65 74.0417 499.059 75.0917 499.059 76.375V91.425C499.059 92.7083 498.65 93.7583 497.834 94.575C497.017 95.3917 496.025 95.8 494.859 95.8H479.459C474.325 95.8 470.3 97.2583 467.384 100.175C464.467 102.975 463.009 107 463.009 112.25V158.625C463.009 159.908 462.6 160.958 461.784 161.775C460.967 162.592 459.917 163 458.634 163H440.259ZM551.683 164.75C538.266 164.75 527.591 161.017 519.658 153.55C511.841 146.083 507.7 135.233 507.233 121C507.233 120.067 507.233 118.842 507.233 117.325C507.233 115.692 507.233 114.408 507.233 113.475C507.7 104.492 509.741 96.7917 513.358 90.375C516.975 83.8417 522.05 78.8833 528.583 75.5C535.116 72 542.758 70.25 551.508 70.25C561.308 70.25 569.475 72.2917 576.008 76.375C582.658 80.3417 587.616 85.825 590.883 92.825C594.266 99.7083 595.958 107.642 595.958 116.625V120.65C595.958 121.817 595.491 122.808 594.558 123.625C593.741 124.442 592.75 124.85 591.583 124.85H534.358C534.358 124.967 534.358 125.2 534.358 125.55C534.358 125.783 534.358 126.017 534.358 126.25C534.475 129.983 535.175 133.425 536.458 136.575C537.858 139.608 539.783 142.058 542.233 143.925C544.8 145.792 547.833 146.725 551.333 146.725C554.25 146.725 556.641 146.317 558.508 145.5C560.375 144.683 561.891 143.692 563.058 142.525C564.341 141.358 565.275 140.367 565.858 139.55C566.908 138.383 567.725 137.683 568.308 137.45C569.008 137.1 570.058 136.925 571.458 136.925H589.658C590.825 136.925 591.758 137.275 592.458 137.975C593.275 138.558 593.625 139.433 593.508 140.6C593.391 142.467 592.4 144.8 590.533 147.6C588.783 150.283 586.158 152.967 582.658 155.65C579.158 158.217 574.783 160.375 569.533 162.125C564.4 163.875 558.45 164.75 551.683 164.75ZM534.358 108.925H568.658V108.575C568.658 104.375 567.958 100.758 566.558 97.725C565.275 94.575 563.35 92.125 560.783 90.375C558.216 88.625 555.125 87.75 551.508 87.75C547.891 87.75 544.8 88.625 542.233 90.375C539.666 92.125 537.683 94.575 536.283 97.725C535 100.758 534.358 104.375 534.358 108.575V108.925ZM617.826 163C616.543 163 615.493 162.592 614.676 161.775C613.86 160.958 613.451 159.908 613.451 158.625V43.125C613.451 41.8417 613.86 40.7917 614.676 39.975C615.493 39.1583 616.543 38.75 617.826 38.75H635.326C636.493 38.75 637.485 39.1583 638.301 39.975C639.118 40.7917 639.526 41.8417 639.526 43.125V158.625C639.526 159.908 639.118 160.958 638.301 161.775C637.485 162.592 636.493 163 635.326 163H617.826ZM666.02 163C664.736 163 663.686 162.592 662.87 161.775C662.053 160.958 661.645 159.908 661.645 158.625V43.125C661.645 41.8417 662.053 40.7917 662.87 39.975C663.686 39.1583 664.736 38.75 666.02 38.75H683.52C684.686 38.75 685.678 39.1583 686.495 39.975C687.311 40.7917 687.72 41.8417 687.72 43.125V158.625C687.72 159.908 687.311 160.958 686.495 161.775C685.678 162.592 684.686 163 683.52 163H666.02ZM751.488 164.75C741.805 164.75 733.696 163.175 727.163 160.025C720.63 156.758 715.613 152.15 712.113 146.2C708.73 140.25 706.863 133.308 706.513 125.375C706.396 123.042 706.338 120.417 706.338 117.5C706.338 114.467 706.396 111.842 706.513 109.625C706.863 101.575 708.846 94.6333 712.463 88.8C716.08 82.85 721.155 78.3 727.688 75.15C734.221 71.8833 742.155 70.25 751.488 70.25C760.705 70.25 768.58 71.8833 775.113 75.15C781.646 78.3 786.721 82.85 790.338 88.8C793.955 94.6333 795.938 101.575 796.288 109.625C796.521 111.842 796.638 114.467 796.638 117.5C796.638 120.417 796.521 123.042 796.288 125.375C795.938 133.308 794.013 140.25 790.513 146.2C787.13 152.15 782.171 156.758 775.638 160.025C769.105 163.175 761.055 164.75 751.488 164.75ZM751.488 145.5C757.205 145.5 761.521 143.75 764.438 140.25C767.355 136.633 768.93 131.383 769.163 124.5C769.28 122.75 769.338 120.417 769.338 117.5C769.338 114.583 769.28 112.25 769.163 110.5C768.93 103.733 767.355 98.5417 764.438 94.925C761.521 91.3083 757.205 89.5 751.488 89.5C745.771 89.5 741.396 91.3083 738.363 94.925C735.446 98.5417 733.871 103.733 733.638 110.5C733.521 112.25 733.463 114.583 733.463 117.5C733.463 120.417 733.521 122.75 733.638 124.5C733.871 131.383 735.446 136.633 738.363 140.25C741.396 143.75 745.771 145.5 751.488 145.5Z" fill="#16172F"/>
<path d="M196 116C196 160.183 159.452 196 110.883 196C62.3137 196 24 160.183 24 116C24 71.8172 62.3137 36 110.883 36C159.452 36 196 71.8172 196 116Z" fill="white"/>
<path fill-rule="evenodd" clip-rule="evenodd" d="M112 222C173.856 222 224 172.304 224 111C224 49.6964 173.856 0 112 0C50.1441 0 0 49.6964 0 111C0 172.304 50.1441 222 112 222ZM136.436 73.6636C144.309 73.6636 150.691 67.3386 150.691 59.5364C150.691 51.7341 144.309 45.4091 136.436 45.4091C128.564 45.4091 122.182 51.7341 122.182 59.5364C122.182 61.1039 121.481 62.6577 120.089 63.4021L91.5564 78.6602C89.4419 79.7909 86.8558 79.2419 84.9572 77.7826C81.598 75.2006 77.3801 73.6636 72.8 73.6636C61.8346 73.6636 52.9455 82.4734 52.9455 93.3409C52.9455 104.208 61.8346 113.018 72.8 113.018C77.464 113.018 81.7524 111.424 85.1409 108.756C86.9545 107.328 89.4172 106.741 91.5058 107.733L119.169 120.881C121.365 121.924 122.448 124.364 122.257 126.77C122.207 127.393 122.182 128.023 122.182 128.659C122.182 129.53 122.229 130.391 122.322 131.238C122.59 133.695 121.526 136.225 119.283 137.304L92.5185 150.178C90.4217 151.187 87.9454 150.578 86.0503 149.233C83.4644 147.398 80.2958 146.318 76.8727 146.318C68.1567 146.318 61.0909 153.321 61.0909 161.959C61.0909 170.597 68.1567 177.6 76.8727 177.6C85.5888 177.6 92.6545 170.597 92.6545 161.959C92.6545 161.648 92.8279 161.361 93.1098 161.226L124.698 146.031C126.754 145.042 129.189 145.578 130.957 147.013C135.083 150.363 140.359 152.373 146.109 152.373C159.324 152.373 170.036 141.756 170.036 128.659C170.036 115.562 159.324 104.945 146.109 104.945C139.798 104.945 134.058 107.367 129.783 111.323C128.012 112.962 125.428 113.64 123.243 112.602L95.8211 99.5692C93.6693 98.5465 92.5932 96.1742 92.649 93.8098C92.6527 93.6539 92.6545 93.4976 92.6545 93.3409C92.6545 91.2327 93.6047 89.1485 95.4768 88.1474L124.994 72.3632C126.745 71.4269 128.856 71.6647 130.676 72.4624C132.437 73.2347 134.386 73.6636 136.436 73.6636Z" fill="#16172F"/>
</svg>
